<mxfile host="65bd71144e">
    <diagram id="GInHtZuMB5CcCfA9ihm7" name="Page-1">
        <mxGraphModel dx="820" dy="429" grid="1" gridSize="10" guides="1" tooltips="1" connect="1" arrows="1" fold="1" page="1" pageScale="1" pageWidth="850" pageHeight="1100" math="0" shadow="0">
            <root>
                <mxCell id="0"/>
                <mxCell id="1" parent="0"/>
                <mxCell id="7" style="edgeStyle=none;html=1;" parent="1" source="2" target="3" edge="1">
                    <mxGeometry relative="1" as="geometry"/>
                </mxCell>
                <mxCell id="2" value="Start" style="strokeWidth=2;html=1;shape=mxgraph.flowchart.terminator;whiteSpace=wrap;" parent="1" vertex="1">
                    <mxGeometry x="300" y="260" width="100" height="60" as="geometry"/>
                </mxCell>
                <mxCell id="11" value="" style="edgeStyle=none;html=1;" parent="1" source="3" target="10" edge="1">
                    <mxGeometry relative="1" as="geometry"/>
                </mxCell>
                <mxCell id="3" value="choose the&lt;br&gt;art you want" style="shape=parallelogram;html=1;strokeWidth=2;perimeter=parallelogramPerimeter;whiteSpace=wrap;rounded=1;arcSize=12;size=0.23;" parent="1" vertex="1">
                    <mxGeometry x="300" y="340" width="100" height="60" as="geometry"/>
                </mxCell>
                <mxCell id="6" value="Stop" style="strokeWidth=2;html=1;shape=mxgraph.flowchart.terminator;whiteSpace=wrap;" parent="1" vertex="1">
                    <mxGeometry x="620" y="1250" width="100" height="60" as="geometry"/>
                </mxCell>
                <mxCell id="14" value="" style="edgeStyle=none;html=1;" parent="1" source="10" target="13" edge="1">
                    <mxGeometry relative="1" as="geometry"/>
                </mxCell>
                <mxCell id="21" value="" style="edgeStyle=none;rounded=0;html=1;" parent="1" source="10" target="20" edge="1">
                    <mxGeometry relative="1" as="geometry"/>
                </mxCell>
                <mxCell id="10" value="if (paintArt &lt;br&gt;== true)" style="rhombus;whiteSpace=wrap;html=1;strokeWidth=2;rounded=0;arcSize=12;" parent="1" vertex="1">
                    <mxGeometry x="302.5" y="420" width="97.5" height="97.5" as="geometry"/>
                </mxCell>
                <mxCell id="70" style="edgeStyle=none;rounded=0;html=1;exitX=1;exitY=0.5;exitDx=0;exitDy=0;" edge="1" parent="1" source="13">
                    <mxGeometry relative="1" as="geometry">
                        <mxPoint x="670" y="1251" as="targetPoint"/>
                        <Array as="points">
                            <mxPoint x="670" y="466"/>
                        </Array>
                    </mxGeometry>
                </mxCell>
                <mxCell id="13" value="&lt;div&gt;const paintArtAns&amp;nbsp;&lt;/div&gt;&lt;div&gt;= paintArtPrice * TAX_RATE&lt;/div&gt;&lt;div&gt;&amp;nbsp; &amp;nbsp; document.getElementById&lt;/div&gt;&lt;div&gt;(&quot;checkOut&quot;).innerHTML =&lt;/div&gt;&lt;div&gt;&amp;nbsp; &amp;nbsp; &amp;nbsp; &quot;Your bill is $&quot; + paintArtAns.toFixed(2) + &quot;.&quot;&lt;/div&gt;" style="shape=parallelogram;perimeter=parallelogramPerimeter;whiteSpace=wrap;html=1;fixedSize=1;strokeWidth=2;rounded=0;arcSize=12;" parent="1" vertex="1">
                    <mxGeometry x="436.25" y="420" width="190" height="92.5" as="geometry"/>
                </mxCell>
                <mxCell id="15" value="yes" style="text;html=1;align=center;verticalAlign=middle;resizable=0;points=[];autosize=1;strokeColor=none;fillColor=none;" parent="1" vertex="1">
                    <mxGeometry x="400" y="470" width="30" height="20" as="geometry"/>
                </mxCell>
                <mxCell id="19" value="no" style="text;html=1;align=center;verticalAlign=middle;resizable=0;points=[];autosize=1;strokeColor=none;fillColor=none;" parent="1" vertex="1">
                    <mxGeometry x="315" y="517.5" width="30" height="20" as="geometry"/>
                </mxCell>
                <mxCell id="23" value="" style="edgeStyle=none;rounded=0;html=1;" parent="1" source="20" target="22" edge="1">
                    <mxGeometry relative="1" as="geometry"/>
                </mxCell>
                <mxCell id="25" value="" style="edgeStyle=none;rounded=0;html=1;" parent="1" source="20" target="24" edge="1">
                    <mxGeometry relative="1" as="geometry"/>
                </mxCell>
                <mxCell id="20" value="else if &lt;br&gt;(sandArt &lt;br&gt;== true)" style="rhombus;whiteSpace=wrap;html=1;strokeWidth=2;rounded=0;arcSize=12;" parent="1" vertex="1">
                    <mxGeometry x="302.5" y="540" width="97.5" height="97.5" as="geometry"/>
                </mxCell>
                <mxCell id="68" style="edgeStyle=none;rounded=0;html=1;exitX=1;exitY=0.5;exitDx=0;exitDy=0;" edge="1" parent="1" source="22">
                    <mxGeometry relative="1" as="geometry">
                        <mxPoint x="670" y="1250" as="targetPoint"/>
                        <Array as="points">
                            <mxPoint x="670" y="589"/>
                        </Array>
                    </mxGeometry>
                </mxCell>
                <mxCell id="22" value="&lt;div&gt;const sandArtAns&lt;/div&gt;&lt;div&gt;&amp;nbsp;= sandArtPrice * TAX_RATE&lt;span&gt;&amp;nbsp; &amp;nbsp; document.getElementById&lt;/span&gt;&lt;/div&gt;&lt;div&gt;(&quot;checkOut&quot;).innerHTML =&lt;/div&gt;&lt;div&gt;&amp;nbsp; &amp;nbsp; &amp;nbsp; &quot;Your bill is $&quot; + sandArtAns.toFixed(2) + &quot;.&quot;&lt;/div&gt;" style="shape=parallelogram;perimeter=parallelogramPerimeter;whiteSpace=wrap;html=1;fixedSize=1;strokeWidth=2;rounded=0;arcSize=12;" parent="1" vertex="1">
                    <mxGeometry x="440" y="548.75" width="182.5" height="80" as="geometry"/>
                </mxCell>
                <mxCell id="29" value="" style="edgeStyle=none;rounded=0;html=1;" parent="1" source="24" target="28" edge="1">
                    <mxGeometry relative="1" as="geometry"/>
                </mxCell>
                <mxCell id="34" value="" style="edgeStyle=none;html=1;" edge="1" parent="1" source="24" target="33">
                    <mxGeometry relative="1" as="geometry"/>
                </mxCell>
                <mxCell id="24" value="else if (sculptureArt == true)" style="rhombus;whiteSpace=wrap;html=1;strokeWidth=2;rounded=0;arcSize=12;" parent="1" vertex="1">
                    <mxGeometry x="301.25" y="657.5" width="97.5" height="97.5" as="geometry"/>
                </mxCell>
                <mxCell id="67" style="edgeStyle=none;rounded=0;html=1;exitX=1;exitY=0.5;exitDx=0;exitDy=0;entryX=0.5;entryY=0;entryDx=0;entryDy=0;entryPerimeter=0;" edge="1" parent="1" source="28" target="6">
                    <mxGeometry relative="1" as="geometry">
                        <Array as="points">
                            <mxPoint x="670" y="706"/>
                        </Array>
                    </mxGeometry>
                </mxCell>
                <mxCell id="28" value="&lt;div&gt;const sculptureArtAns&amp;nbsp;&lt;/div&gt;&lt;div&gt;= sculpturePrice * TAX_RATE&lt;/div&gt;&lt;div&gt;&amp;nbsp; &amp;nbsp; document.getElementById&lt;/div&gt;&lt;div&gt;(&quot;checkOut&quot;).innerHTML =&lt;/div&gt;&lt;div&gt;&amp;nbsp; &amp;nbsp; &amp;nbsp; &quot;Your bill is $&quot; + sculptureArtAns.toFixed(2) + &quot;.&quot;&lt;/div&gt;" style="shape=parallelogram;perimeter=parallelogramPerimeter;whiteSpace=wrap;html=1;fixedSize=1;strokeWidth=2;rounded=0;arcSize=12;" parent="1" vertex="1">
                    <mxGeometry x="430" y="660.31" width="190" height="91.87" as="geometry"/>
                </mxCell>
                <mxCell id="30" value="yes" style="text;html=1;align=center;verticalAlign=middle;resizable=0;points=[];autosize=1;strokeColor=none;fillColor=none;" parent="1" vertex="1">
                    <mxGeometry x="398.75" y="590" width="30" height="20" as="geometry"/>
                </mxCell>
                <mxCell id="31" value="no" style="text;html=1;align=center;verticalAlign=middle;resizable=0;points=[];autosize=1;strokeColor=none;fillColor=none;" parent="1" vertex="1">
                    <mxGeometry x="315" y="637.5" width="30" height="20" as="geometry"/>
                </mxCell>
                <mxCell id="32" value="yes" style="text;html=1;align=center;verticalAlign=middle;resizable=0;points=[];autosize=1;strokeColor=none;fillColor=none;" parent="1" vertex="1">
                    <mxGeometry x="400" y="710" width="30" height="20" as="geometry"/>
                </mxCell>
                <mxCell id="37" value="" style="edgeStyle=none;html=1;" edge="1" parent="1" source="33" target="35">
                    <mxGeometry relative="1" as="geometry"/>
                </mxCell>
                <mxCell id="45" value="" style="edgeStyle=none;html=1;" edge="1" parent="1" source="33" target="44">
                    <mxGeometry relative="1" as="geometry"/>
                </mxCell>
                <mxCell id="33" value="// pairs&lt;br&gt;if (paintArt &amp;amp;&amp;amp; sandArt== true" style="rhombus;whiteSpace=wrap;html=1;strokeWidth=2;rounded=0;arcSize=12;" vertex="1" parent="1">
                    <mxGeometry x="301.25" y="780" width="97.5" height="97.5" as="geometry"/>
                </mxCell>
                <mxCell id="66" style="edgeStyle=none;rounded=0;html=1;exitX=1;exitY=0.5;exitDx=0;exitDy=0;" edge="1" parent="1" source="35">
                    <mxGeometry relative="1" as="geometry">
                        <mxPoint x="670" y="1250" as="targetPoint"/>
                        <Array as="points">
                            <mxPoint x="670" y="829"/>
                        </Array>
                    </mxGeometry>
                </mxCell>
                <mxCell id="35" value="&lt;div&gt;&amp;nbsp; const paintSand = (sandArtPrice + paintArtPrice) * TAX_RATE&lt;/div&gt;&lt;div&gt;&amp;nbsp; &amp;nbsp; document.getElementById&lt;/div&gt;&lt;div&gt;(&quot;checkOut&quot;).innerHTML =&amp;nbsp;&lt;span&gt;&quot;Your bill is&quot; + paintSand.toFixed(2) + &quot;.&quot;&lt;/span&gt;&lt;/div&gt;" style="shape=parallelogram;perimeter=parallelogramPerimeter;whiteSpace=wrap;html=1;fixedSize=1;strokeWidth=2;rounded=0;arcSize=12;" vertex="1" parent="1">
                    <mxGeometry x="425" y="782.8199999999999" width="190" height="91.87" as="geometry"/>
                </mxCell>
                <mxCell id="40" value="no" style="text;html=1;align=center;verticalAlign=middle;resizable=0;points=[];autosize=1;strokeColor=none;fillColor=none;" vertex="1" parent="1">
                    <mxGeometry x="315" y="760" width="30" height="20" as="geometry"/>
                </mxCell>
                <mxCell id="42" value="yes" style="text;html=1;align=center;verticalAlign=middle;resizable=0;points=[];autosize=1;strokeColor=none;fillColor=none;" vertex="1" parent="1">
                    <mxGeometry x="395" y="830" width="30" height="20" as="geometry"/>
                </mxCell>
                <mxCell id="43" value="no" style="text;html=1;align=center;verticalAlign=middle;resizable=0;points=[];autosize=1;strokeColor=none;fillColor=none;" vertex="1" parent="1">
                    <mxGeometry x="315" y="880" width="30" height="20" as="geometry"/>
                </mxCell>
                <mxCell id="49" style="edgeStyle=none;html=1;exitX=1;exitY=0.5;exitDx=0;exitDy=0;entryX=0;entryY=0.5;entryDx=0;entryDy=0;" edge="1" parent="1" source="44" target="48">
                    <mxGeometry relative="1" as="geometry"/>
                </mxCell>
                <mxCell id="52" value="" style="edgeStyle=none;html=1;" edge="1" parent="1" source="44" target="51">
                    <mxGeometry relative="1" as="geometry"/>
                </mxCell>
                <mxCell id="44" value="else if (sandArt &amp;amp;&amp;amp; sculptureArt == true)" style="rhombus;whiteSpace=wrap;html=1;strokeWidth=2;rounded=0;arcSize=12;" vertex="1" parent="1">
                    <mxGeometry x="301.25" y="900" width="97.5" height="97.5" as="geometry"/>
                </mxCell>
                <mxCell id="65" style="edgeStyle=none;rounded=0;html=1;exitX=1;exitY=0.5;exitDx=0;exitDy=0;entryX=0.5;entryY=0;entryDx=0;entryDy=0;entryPerimeter=0;" edge="1" parent="1" source="48" target="6">
                    <mxGeometry relative="1" as="geometry">
                        <Array as="points">
                            <mxPoint x="670" y="949"/>
                        </Array>
                    </mxGeometry>
                </mxCell>
                <mxCell id="48" value="&lt;div&gt;const sandSculpture = (sandArtPrice +&amp;nbsp;&lt;/div&gt;&lt;div&gt;sculpturePrice) * TAX_RATE&lt;/div&gt;&lt;div&gt;&amp;nbsp; &amp;nbsp; document.getElementById&lt;/div&gt;&lt;div&gt;(&quot;checkOut&quot;).innerHTML =&lt;/div&gt;&lt;div&gt;&amp;nbsp; &amp;nbsp; &amp;nbsp; &quot;Your bill is $&quot; + sandSculpture.toFixed(2) + &quot;.&quot;&lt;/div&gt;" style="shape=parallelogram;perimeter=parallelogramPerimeter;whiteSpace=wrap;html=1;fixedSize=1;strokeWidth=2;rounded=0;arcSize=12;" vertex="1" parent="1">
                    <mxGeometry x="425" y="902.82" width="190" height="91.87" as="geometry"/>
                </mxCell>
                <mxCell id="50" value="yes" style="text;html=1;align=center;verticalAlign=middle;resizable=0;points=[];autosize=1;strokeColor=none;fillColor=none;" vertex="1" parent="1">
                    <mxGeometry x="395" y="950" width="30" height="20" as="geometry"/>
                </mxCell>
                <mxCell id="55" style="edgeStyle=none;html=1;exitX=1;exitY=0.5;exitDx=0;exitDy=0;entryX=0;entryY=0.5;entryDx=0;entryDy=0;" edge="1" parent="1" source="51" target="54">
                    <mxGeometry relative="1" as="geometry"/>
                </mxCell>
                <mxCell id="57" value="" style="edgeStyle=none;html=1;" edge="1" parent="1" source="51" target="56">
                    <mxGeometry relative="1" as="geometry"/>
                </mxCell>
                <mxCell id="51" value="else if (paintArt &amp;amp;&amp;amp; sculptureArt == true)" style="rhombus;whiteSpace=wrap;html=1;strokeWidth=2;rounded=0;arcSize=12;" vertex="1" parent="1">
                    <mxGeometry x="301.25" y="1017.5" width="97.5" height="97.5" as="geometry"/>
                </mxCell>
                <mxCell id="53" value="no" style="text;html=1;align=center;verticalAlign=middle;resizable=0;points=[];autosize=1;strokeColor=none;fillColor=none;" vertex="1" parent="1">
                    <mxGeometry x="315" y="997.5" width="30" height="20" as="geometry"/>
                </mxCell>
                <mxCell id="64" style="edgeStyle=none;rounded=0;html=1;exitX=1;exitY=0.5;exitDx=0;exitDy=0;" edge="1" parent="1" source="54">
                    <mxGeometry relative="1" as="geometry">
                        <mxPoint x="670" y="1250" as="targetPoint"/>
                        <Array as="points">
                            <mxPoint x="670" y="1066"/>
                        </Array>
                    </mxGeometry>
                </mxCell>
                <mxCell id="54" value="&lt;div&gt;const&amp;nbsp;&lt;span&gt;paintSculpture =&amp;nbsp;&lt;/span&gt;&lt;/div&gt;&lt;div&gt;(paintArtPrice +&amp;nbsp;&lt;span&gt;sculpturePrice) * TAX_RATE&lt;/span&gt;&lt;/div&gt;&lt;div&gt;&lt;span&gt;document.getElementById(&lt;/span&gt;&lt;/div&gt;&lt;div&gt;&quot;checkOut&quot;).innerHTML =&amp;nbsp;&lt;span&gt;&quot;Your bill is $&quot; + paintSculpture.toFixed(2) + &quot;.&quot;&lt;/span&gt;&lt;/div&gt;" style="shape=parallelogram;perimeter=parallelogramPerimeter;whiteSpace=wrap;html=1;fixedSize=1;strokeWidth=2;rounded=0;arcSize=12;" vertex="1" parent="1">
                    <mxGeometry x="425" y="1020.3100000000001" width="190" height="91.87" as="geometry"/>
                </mxCell>
                <mxCell id="61" style="edgeStyle=none;html=1;exitX=1;exitY=0.5;exitDx=0;exitDy=0;entryX=0;entryY=0.5;entryDx=0;entryDy=0;" edge="1" parent="1" source="56" target="60">
                    <mxGeometry relative="1" as="geometry"/>
                </mxCell>
                <mxCell id="62" value="Text" style="edgeLabel;html=1;align=center;verticalAlign=middle;resizable=0;points=[];" vertex="1" connectable="0" parent="61">
                    <mxGeometry x="-0.3792" y="-9" relative="1" as="geometry">
                        <mxPoint as="offset"/>
                    </mxGeometry>
                </mxCell>
                <mxCell id="56" value="if (paintArt &amp;amp;&amp;amp; sandArt &amp;amp;&amp;amp; sculptureArt == true)" style="rhombus;whiteSpace=wrap;html=1;strokeWidth=2;rounded=0;arcSize=12;" vertex="1" parent="1">
                    <mxGeometry x="301.25" y="1140" width="97.5" height="97.5" as="geometry"/>
                </mxCell>
                <mxCell id="58" value="yes" style="text;html=1;align=center;verticalAlign=middle;resizable=0;points=[];autosize=1;strokeColor=none;fillColor=none;" vertex="1" parent="1">
                    <mxGeometry x="385" y="1070" width="30" height="20" as="geometry"/>
                </mxCell>
                <mxCell id="59" value="no" style="text;html=1;align=center;verticalAlign=middle;resizable=0;points=[];autosize=1;strokeColor=none;fillColor=none;" vertex="1" parent="1">
                    <mxGeometry x="315" y="1120" width="30" height="20" as="geometry"/>
                </mxCell>
                <mxCell id="63" style="edgeStyle=none;html=1;exitX=1;exitY=0.5;exitDx=0;exitDy=0;entryX=0.5;entryY=0;entryDx=0;entryDy=0;entryPerimeter=0;rounded=0;" edge="1" parent="1" source="60" target="6">
                    <mxGeometry relative="1" as="geometry">
                        <Array as="points">
                            <mxPoint x="670" y="1189"/>
                        </Array>
                    </mxGeometry>
                </mxCell>
                <mxCell id="60" value="&lt;div&gt;const allTheArt =&amp;nbsp;&lt;/div&gt;&lt;div&gt;(sandArtPrice + paintArtPrice +&amp;nbsp;&lt;/div&gt;&lt;div&gt;sculpturePrice) * TAX_RATE&lt;/div&gt;&lt;div&gt;&amp;nbsp; &amp;nbsp; document.getElementById&lt;/div&gt;&lt;div&gt;(&quot;checkOut&quot;).innerHTML =&amp;nbsp;&lt;span&gt;&quot;Your bill is $&quot; + allTheArt.toFixed(2) + &quot;.&quot;&lt;/span&gt;&lt;/div&gt;" style="shape=parallelogram;perimeter=parallelogramPerimeter;whiteSpace=wrap;html=1;fixedSize=1;strokeWidth=2;rounded=0;arcSize=12;" vertex="1" parent="1">
                    <mxGeometry x="425" y="1142.82" width="190" height="91.87" as="geometry"/>
                </mxCell>
            </root>
        </mxGraphModel>
    </diagram>
</mxfile>